<svg width="53" height="48" viewBox="0 0 53 48" fill="none" xmlns="http://www.w3.org/2000/svg">
<path d="M49.6875 41.5H3.3125C1.48306 41.5 0 42.9551 0 44.75C0 46.5449 1.48306 48 3.3125 48H49.6875C51.5169 48 53 46.5449 53 44.75C53 42.9551 51.5169 41.5 49.6875 41.5Z" fill="#2DC6D6"/>
<path d="M0 38.25L0 44.75C0 46.5449 1.48306 48 3.3125 48C5.14194 48 6.625 46.5449 6.625 44.75L6.625 38.25C6.625 36.4551 5.14194 35 3.3125 35C1.48306 35 0 36.4551 0 38.25Z" fill="#2DC6D6"/>
<path d="M46.375 38.25V44.75C46.375 46.5449 47.858 48 49.6875 48C51.5169 48 53 46.5449 53 44.75V38.25C53 36.4551 51.5169 35 49.6875 35C47.858 35 46.375 36.4551 46.375 38.25Z" fill="#2DC6D6"/>
<path d="M23.3992 0H30.0437C31.5166 0 32.7016 1.22536 32.7016 2.74847V16.2618H37.7846C39.7558 16.2618 40.7414 18.7239 39.3461 20.1669L28.0171 34.3558C27.1866 35.2147 25.8245 35.2147 24.9939 34.3558L13.6539 20.1669C12.2586 18.7239 13.2442 16.2618 15.2154 16.2618H20.7414V2.74847C20.7414 1.22536 21.9263 0 23.3992 0Z" fill="#2DC6D6"/>
</svg>
