<svg xmlns="http://www.w3.org/2000/svg" width="54.576" height="45.329" viewBox="0 0 54.576 45.329"><defs><style>.a{fill:#00a4b2;}.b{fill:#fff;}.c,.e,.f{fill:none;stroke:#fff;stroke-miterlimit:22.926;}.c{stroke-width:0.064px;}.d{fill:#ae172a;}.e{stroke-width:0.063px;}.f{stroke-width:0.077px;}</style></defs><g transform="translate(0 0)"><path class="a" d="M50.33,22.665A22.66,22.66,0,1,1,27.675,0,22.664,22.664,0,0,1,50.33,22.665" transform="translate(-0.387 0)"/><path class="b" d="M14.04,15.423a.439.439,0,0,0,.591-.148.335.335,0,0,0-.092-.5c-.212-.129-.369.018-.544.138-.258.185-.471.378-.784.175a.534.534,0,0,1-.138-.775.583.583,0,0,1,.747-.249l-.065.249a.369.369,0,0,0-.48.138.285.285,0,0,0,.055.415c.157.1.268.028.406-.065l.388-.258a.506.506,0,0,1,.544.009.573.573,0,0,1,.175.849.649.649,0,0,1-.858.249Z" transform="translate(-1.001 -1.082)"/><path class="c" d="M14.04,15.423a.439.439,0,0,0,.591-.148.335.335,0,0,0-.092-.5c-.212-.129-.369.018-.544.138-.258.185-.471.378-.784.175a.534.534,0,0,1-.138-.775.583.583,0,0,1,.747-.249l-.065.249a.369.369,0,0,0-.48.138.285.285,0,0,0,.055.415c.157.1.268.028.406-.065l.388-.258a.506.506,0,0,1,.544.009.573.573,0,0,1,.175.849.649.649,0,0,1-.858.249Z" transform="translate(-1.001 -1.082)"/><path class="b" d="M14.962,12.314h0l.526.812.36-.434Zm.655,1.006.332.526-.231.138L14.63,12.249,14.842,12l1.9.775-.092.249-.572-.24Z" transform="translate(-1.129 -0.926)"/><path class="c" d="M14.962,12.314h0l.526.812.36-.434Zm.655,1.006.332.526-.231.138L14.63,12.249,14.842,12l1.9.775-.092.249-.572-.24Z" transform="translate(-1.129 -0.926)"/><path class="b" d="M17.863,11.375h0c.166-.148.3-.332.111-.535a.341.341,0,0,0-.517-.018l-.268.24.452.508Zm-.609-.664h0a.3.3,0,0,0,.037-.461c-.157-.175-.323-.111-.461.009l-.2.185.415.461Zm.194,1.347-.157-.175.157-.138L16.424,10.6l-.157.138-.157-.175.471-.415c.378-.341.664-.341.9-.083a.437.437,0,0,1,.1.452.481.481,0,0,1,.572.129.557.557,0,0,1-.111.858Z" transform="translate(-1.243 -0.762)"/><path class="c" d="M17.863,11.375h0c.166-.148.3-.332.111-.535a.341.341,0,0,0-.517-.018l-.268.24.452.508Zm-.609-.664h0a.3.3,0,0,0,.037-.461c-.157-.175-.323-.111-.461.009l-.2.185.415.461Zm.194,1.347-.157-.175.157-.138L16.424,10.6l-.157.138-.157-.175.471-.415c.378-.341.664-.341.9-.083a.437.437,0,0,1,.1.452.481.481,0,0,1,.572.129.557.557,0,0,1-.111.858Z" transform="translate(-1.243 -0.762)"/><path class="b" d="M19.029,9.5h0c.157.24.48.628.8.415s.092-.655-.074-.9-.471-.628-.794-.415S18.872,9.25,19.029,9.5Zm.96-.637c.092.138.563.867-.018,1.246-.268.175-.72.2-1.163-.461s-.258-1.07.018-1.255S19.546,8.2,19.989,8.862Z" transform="translate(-1.431 -0.639)"/><path class="c" d="M19.029,9.5h0c.157.24.48.628.8.415s.092-.655-.074-.9-.471-.628-.794-.415S18.872,9.25,19.029,9.5Zm.96-.637c.092.138.563.867-.018,1.246-.268.175-.72.2-1.163-.461s-.258-1.07.018-1.255S19.546,8.2,19.989,8.862Z" transform="translate(-1.431 -0.639)"/><path class="b" d="M21.652,7.871h0a.364.364,0,0,0,.212-.508.3.3,0,0,0-.443-.138l-.378.175.3.618ZM20.72,7.3l.609-.286a.524.524,0,0,1,.775.231.61.61,0,0,1-.129.683l.784.517-.148.212-.849-.6-.323.166L21.809,9l-.231.111Z" transform="translate(-1.599 -0.535)"/><path class="c" d="M21.652,7.871h0a.364.364,0,0,0,.212-.508.3.3,0,0,0-.443-.138l-.378.175.3.618ZM20.72,7.3l.609-.286a.524.524,0,0,1,.775.231.61.61,0,0,1-.129.683l.784.517-.148.212-.849-.6-.323.166L21.809,9l-.231.111Z" transform="translate(-1.599 -0.535)"/><path class="b" d="M27.492,6.922a.751.751,0,0,1-.591.517c-.572.092-.84-.415-.914-.9-.12-.784.258-1.089.572-1.135a.685.685,0,0,1,.692.323l-.212.157a.459.459,0,0,0-.434-.24c-.4.065-.4.554-.351.849s.194.775.591.711c.231-.037.323-.194.415-.388Z" transform="translate(-2.004 -0.416)"/><path class="c" d="M27.492,6.922a.751.751,0,0,1-.591.517c-.572.092-.84-.415-.914-.9-.12-.784.258-1.089.572-1.135a.685.685,0,0,1,.692.323l-.212.157a.459.459,0,0,0-.434-.24c-.4.065-.4.554-.351.849s.194.775.591.711c.231-.037.323-.194.415-.388Z" transform="translate(-2.004 -0.416)"/><path class="b" d="M28.877,6.214h0c0,.3.065.784.452.784s.434-.508.424-.794-.065-.794-.452-.784S28.868,5.918,28.877,6.214ZM30.021,6.2c0,.157.009,1.034-.692,1.043-.323.009-.711-.221-.729-1.015s.369-1.043.7-1.043C29.615,5.171,30.012,5.392,30.021,6.2Z" transform="translate(-2.207 -0.399)"/><path class="c" d="M28.877,6.214h0c0,.3.065.784.452.784s.434-.508.424-.794-.065-.794-.452-.784S28.868,5.918,28.877,6.214ZM30.021,6.2c0,.157.009,1.034-.692,1.043-.323.009-.711-.221-.729-1.015s.369-1.043.7-1.043C29.615,5.171,30.012,5.392,30.021,6.2Z" transform="translate(-2.207 -0.399)"/><path class="b" d="M31.545,5.686h0l-.268,1.6-.268-.037.341-1.966.332.046.249.9.471-.812.332.046-.185,1.984-.268-.037.157-1.606h0l-.591.987Z" transform="translate(-2.393 -0.407)"/><path class="c" d="M31.545,5.686h0l-.268,1.6-.268-.037.341-1.966.332.046.249.9.471-.812.332.046-.185,1.984-.268-.037.157-1.606h0l-.591.987Z" transform="translate(-2.393 -0.407)"/><path class="b" d="M36.417,7.952a.439.439,0,0,0,.221.563.337.337,0,0,0,.48-.157c.1-.221-.065-.36-.212-.517-.212-.231-.434-.415-.286-.757a.534.534,0,0,1,.747-.24.593.593,0,0,1,.351.711l-.249-.037a.359.359,0,0,0-.2-.452.289.289,0,0,0-.406.111c-.074.175.009.268.12.4l.314.341a.514.514,0,0,1,.065.535.574.574,0,0,1-.821.286.652.652,0,0,1-.369-.812Z" transform="translate(-2.789 -0.523)"/><path class="c" d="M36.417,7.952a.439.439,0,0,0,.221.563.337.337,0,0,0,.48-.157c.1-.221-.065-.36-.212-.517-.212-.231-.434-.415-.286-.757a.534.534,0,0,1,.747-.24.593.593,0,0,1,.351.711l-.249-.037a.359.359,0,0,0-.2-.452.289.289,0,0,0-.406.111c-.074.175.009.268.12.4l.314.341a.514.514,0,0,1,.065.535.574.574,0,0,1-.821.286.652.652,0,0,1-.369-.812Z" transform="translate(-2.789 -0.523)"/><path class="b" d="M39.6,8.451h0l-.729.628.48.3Zm-.914.784-.48.4L38.04,9.42l1.578-1.31.277.175-.517,1.984-.258-.055.166-.6Z" transform="translate(-2.936 -0.626)"/><path class="c" d="M39.6,8.451h0l-.729.628.48.3Zm-.914.784-.48.4L38.04,9.42l1.578-1.31.277.175-.517,1.984-.258-.055.166-.6Z" transform="translate(-2.936 -0.626)"/><path class="b" d="M42.609,9.774h0l-.747-.231L41.9,9.35l.766.148Zm-.877-.2-.886,1.034c-.185.221-.212.378-.009.554.24.212.388.148.572-.074l.886-1.034.194.166-.96,1.126a.629.629,0,0,1-.941-.821l.951-1.117Z" transform="translate(-3.122 -0.721)"/><path class="c" d="M42.609,9.774h0l-.747-.231L41.9,9.35l.766.148Zm-.877-.2-.886,1.034c-.185.221-.212.378-.009.554.24.212.388.148.572-.074l.886-1.034.194.166-.96,1.126a.629.629,0,0,1-.941-.821l.951-1.117Z" transform="translate(-3.122 -0.721)"/><path class="b" d="M42.471,12.753h0l.175.2c.221.249.461.24.9-.138.461-.406.461-.637.249-.877l-.175-.2Zm1.024-1.513.443.5c.378.425.369.775-.185,1.264-.471.415-.84.591-1.31.055L42,12.56l.175-.148.138.157,1.154-1.015-.138-.157Z" transform="translate(-3.241 -0.867)"/><path class="c" d="M42.471,12.753h0l.175.2c.221.249.461.24.9-.138.461-.406.461-.637.249-.877l-.175-.2Zm1.024-1.513.443.5c.378.425.369.775-.185,1.264-.471.415-.84.591-1.31.055L42,12.56l.175-.148.138.157,1.154-1.015-.138-.157Z" transform="translate(-3.241 -0.867)"/><path class="b" d="M45.33,13.52,46,14.563l-.185.129-.544-.831-.5.323.443.683L45.026,15l-.443-.683-.591.388.535.831-.194.12-.674-1.043Z" transform="translate(-3.369 -1.043)"/><path class="c" d="M45.33,13.52,46,14.563l-.185.129-.544-.831-.5.323.443.683L45.026,15l-.443-.683-.591.388.535.831-.194.12-.674-1.043Z" transform="translate(-3.369 -1.043)"/><path class="b" d="M30.233,15.49c0,.148,0,.7.406.7s.369-.544.36-.683c-.028-.489-.314-3.239-.314-3.239a.349.349,0,0,0,.185-.092.546.546,0,0,0,.1-.323,7.472,7.472,0,0,0,.065-1.31.576.576,0,0,0-.129-.36.77.77,0,0,1-.148-.452.579.579,0,0,0-.009-.1.9.9,0,0,0-.415.341,1.926,1.926,0,0,0-.185,1.015c.009.194.055.821.074.932a.425.425,0,0,0,.12.268.286.286,0,0,0,.166.083c.009.009-.277,2.852-.277,3.221" transform="translate(-2.327 -0.743)"/><path class="b" d="M28.368,12.285a.568.568,0,0,0,.581-.581,11.659,11.659,0,0,0-.166-1.984h-.1l.009,1.467c0,.046-.009.24-.148.249s-.138-.175-.138-.221l-.046-1.486h-.1l-.046,1.486c0,.046-.009.231-.148.231s-.148-.2-.148-.221l.009-1.486h-.092a14.113,14.113,0,0,0-.2,1.947.583.583,0,0,0,.591.628c-.083.646-.3,2.482-.3,3.313,0,.221.055.591.4.591.369,0,.378-.406.378-.618-.055-.849-.249-2.667-.323-3.313" transform="translate(-2.132 -0.75)"/><path class="b" d="M26.158,35.929c.157-.443,1.135.2,1.624.037.3-.1.369-.7.711-1.089-.535-.3-.489-.618-.388-.7a1.326,1.326,0,0,1,1.163-.009,4.11,4.11,0,0,1,.471-.3c.526-.286,1.966-.351,2.215.2.221.489-.5,1.643-1,2.021-.028.424-.249,1.061-.6,1.043-.3-.018-.406-.415-.434-.618-.849.3-1.68-.194-1.892-.028-.434.332-.323,1.366-.831,1.329s-.323-1.043-.323-1.043-.877-.4-.72-.84" transform="translate(-2.017 -2.596)"/><path class="b" d="M39.238,42.1c-.508.3-1.034.609-1.578.886a18.036,18.036,0,0,1-4.743,1.753,22.616,22.616,0,0,1-5.094.508,27.376,27.376,0,0,1-3.848-.4,24.567,24.567,0,0,0,9.6-.406c-.212.037-.932.148-1.292.166.268-.083.886-.231,1.347-.369s.757-.24.406-.157a24.384,24.384,0,0,1-5.149.831c-.3,0-.8.028-1.578-.028-.332-.028-.674-.055-1.006-.092.028.009.055.009.083.018l-.2-.028a21.476,21.476,0,0,1-8.73-3.11,19.892,19.892,0,0,1-7.06-7.5,29.143,29.143,0,0,1-1.56-3.959H8.619c.12.378.461,1.513.6,1.883a19.481,19.481,0,0,0,3.045,5.325,20.882,20.882,0,0,0,10.262,6.792,20.384,20.384,0,0,1-3.8-1.421,20.629,20.629,0,0,1-4.734-3.258,19.386,19.386,0,0,1-2.935-3.544,20.05,20.05,0,0,1-1.993-4.07c-.111-.314-.425-1.384-.526-1.707H7.77a18.946,18.946,0,0,0,2.455,5.648,21.125,21.125,0,0,0,4.919,5.26,22.747,22.747,0,0,0,6.312,3.368,20.337,20.337,0,0,0,6.912,1.126A21.177,21.177,0,0,0,32.991,45a20.163,20.163,0,0,0,4.55-1.726,10.327,10.327,0,0,0,1.495-.941c.092-.074.166-.129.221-.175a.607.607,0,0,0,.111-.111c.065-.055.028-.046-.129.046" transform="translate(-0.6 -2.331)"/><path class="b" d="M41.745,6.068A29.992,29.992,0,0,1,45.039,8.9,19.293,19.293,0,0,1,47.7,12.427a19.579,19.579,0,0,1,1.892,4.024c.185.526.332.987.471,1.532h.231a13.5,13.5,0,0,0-.461-1.477,21.377,21.377,0,0,0-4.909-7.982A19.351,19.351,0,0,0,37.352,3.7a26.7,26.7,0,0,1,4.393,2.372" transform="translate(-2.875 -0.282)"/><path class="b" d="M16.425,7.355a21.988,21.988,0,0,1,2.242-1.366c.84-.443,1.744-.8,2.492-1.107a23.886,23.886,0,0,1,4.8-1.246,21.488,21.488,0,0,1,2.3-.166,18.986,18.986,0,0,1,6.294.877,18.781,18.781,0,0,1,7.318,4.273,16.742,16.742,0,0,1,3.156,3.95A20.958,20.958,0,0,1,46.99,17c.092.3.185.591.268.9h.877a21.307,21.307,0,0,0-.766-2.362,22.151,22.151,0,0,0-1.67-3.35,26.147,26.147,0,0,0-2.15-2.916A20.434,20.434,0,0,0,38.38,5.214a18.6,18.6,0,0,0-3.4-1.486,22.248,22.248,0,0,0-3.147-.8,18.534,18.534,0,0,0-2.6-.286c-.655-.018-1.135-.009-1.587.018s-.9.074-1.477.148S24.888,3,23.919,3.23a16.445,16.445,0,0,0-2.658.9,22.236,22.236,0,0,0-3.082,1.624,22.91,22.91,0,0,1,3.534-1.68,16.561,16.561,0,0,1,2.722-.766,19.546,19.546,0,0,1,3.876-.443,20.9,20.9,0,0,1,3.8.3A18.732,18.732,0,0,1,36.7,4.577c.24.12.185.092-.286-.1a21.367,21.367,0,0,0-2.805-.914A18.937,18.937,0,0,0,31,3.091,19.8,19.8,0,0,0,27.453,3a20.585,20.585,0,0,0-4.43.766,19.675,19.675,0,0,0-5.011,2.261c.166-.092.757-.452,1.587-.849a19.915,19.915,0,0,1,3.008-1.163,19.581,19.581,0,0,1,3.073-.646,13.638,13.638,0,0,1,1.532-.12c.065.018-.757.046-1.984.249a20.19,20.19,0,0,0-4.42,1.246,19.885,19.885,0,0,0-4,2.224A15.887,15.887,0,0,0,15.3,8.195c.1-.083.526-.415,1.126-.84" transform="translate(-1.18 -0.203)"/><path class="d" d="M54.567,29.34a.238.238,0,0,1-.24.24H.24A.238.238,0,0,1,0,29.34V19.41a.238.238,0,0,1,.24-.24h54.1a.238.238,0,0,1,.24.24v9.93Z" transform="translate(0 -1.479)"/><path class="b" d="M4.146,27.8H3.02V21.28H6.075V22.3H4.146v1.67H5.8v1H4.146Z" transform="translate(-0.233 -1.642)"/><path class="b" d="M10.559,24.307h0c.471,0,.757-.129.757-1.015,0-.867-.3-1.006-.757-1.006h-.554V24.3h.554ZM10.005,27.8H8.87V21.28h1.836c.951,0,1.753.268,1.753,2.012,0,1.181-.36,1.661-.821,1.9l.96,2.6H11.315l-.747-2.473h-.563Z" transform="translate(-0.685 -1.642)"/><path class="b" d="M18.341,21.28V22.3H16.385v1.67h1.633v1H16.385v1.827h2.076V27.8H15.25V21.28Z" transform="translate(-1.177 -1.642)"/><path class="b" d="M23.747,26.014c0-.683-.277-.84-1.015-1.043A1.73,1.73,0,0,1,21.2,23.052c0-1.283.48-1.892,1.864-1.892,1.541,0,1.707.8,1.716,2l-1.1.138c0-.729-.055-1.144-.655-1.144-.452,0-.692.24-.692.858,0,.674.2.8.9.96a1.709,1.709,0,0,1,1.624,1.966c0,1.449-.655,1.966-1.966,1.966-1.513,0-1.809-.674-1.818-2.021l1.089-.138c.009.8.111,1.163.757,1.163.563-.009.821-.249.821-.9" transform="translate(-1.627 -1.633)"/><path class="b" d="M29.623,26.892c.609,0,.775-.258.784-1.154l1.117.138c-.018,1.384-.4,1.993-1.883,1.993-1.375,0-2.012-.794-2.012-3.35s.637-3.35,2.012-3.35c1.477,0,1.864.609,1.883,1.984l-1.117.148c-.009-.9-.175-1.154-.784-1.154-.692,0-.849.757-.849,2.362,0,1.624.157,2.381.849,2.381" transform="translate(-2.132 -1.633)"/><path class="b" d="M35.487,25.668H36.53l-.517-3.442Zm1.375-4.448L38,27.791H36.853l-.185-1.19H35.34l-.175,1.19H34.02l1.135-6.571h1.707Z" transform="translate(-2.625 -1.637)"/><path class="b" d="M42.568,27.8H41.442V22.3H40.27V21.28h3.47V22.3H42.568Z" transform="translate(-3.108 -1.642)"/><path class="b" d="M48.5,27.8H47.372V22.3H46.2V21.28h3.47V22.3H48.5Z" transform="translate(-3.565 -1.642)"/><path class="b" d="M54.626,24.53h0c0-1.781-.138-2.362-.831-2.362s-.831.581-.831,2.362.138,2.362.831,2.362.831-.581.831-2.362m1.135,0c0,2.344-.36,3.35-1.966,3.35s-1.966-1.006-1.966-3.35.36-3.35,1.966-3.35S55.761,22.186,55.761,24.53Z" transform="translate(-4 -1.634)"/><path class="b" d="M17.037,39.1h0l.212.175c.268.221.517.166.886-.286.406-.489.369-.729.111-.932l-.212-.175Zm.794-1.707.526.443c.452.369.5.729.018,1.31-.406.5-.757.738-1.329.268l-.526-.434.148-.185.166.138,1.006-1.218-.166-.138Z" transform="translate(-1.275 -2.885)"/><path class="e" d="M17.037,39.1h0l.212.175c.268.221.517.166.886-.286.406-.489.369-.729.111-.932l-.212-.175Zm.794-1.707.526.443c.452.369.5.729.018,1.31-.406.5-.757.738-1.329.268l-.526-.434.148-.185.166.138,1.006-1.218-.166-.138Z" transform="translate(-1.275 -2.885)"/><path class="b" d="M20.254,39.2l1.107.646-.12.212-.877-.517-.314.535.729.415-.12.212-.729-.425-.369.628.886.517-.12.2-1.107-.646Z" transform="translate(-1.483 -3.025)"/><path class="e" d="M20.254,39.2l1.107.646-.12.212-.877-.517-.314.535.729.415-.12.212-.729-.425-.369.628.886.517-.12.2-1.107-.646Z" transform="translate(-1.483 -3.025)"/><path class="b" d="M22.439,41.887a.453.453,0,0,0,.268.572.352.352,0,0,0,.489-.185c.092-.24-.083-.369-.249-.517-.24-.221-.471-.4-.332-.757a.555.555,0,0,1,.757-.3.613.613,0,0,1,.406.711l-.258-.018a.366.366,0,0,0-.231-.452.287.287,0,0,0-.406.138c-.065.185.018.277.148.4l.341.332a.507.507,0,0,1,.092.554.589.589,0,0,1-.831.341.666.666,0,0,1-.424-.812Z" transform="translate(-1.713 -3.138)"/><path class="e" d="M22.439,41.887a.453.453,0,0,0,.268.572.352.352,0,0,0,.489-.185c.092-.24-.083-.369-.249-.517-.24-.221-.471-.4-.332-.757a.555.555,0,0,1,.757-.3.613.613,0,0,1,.406.711l-.258-.018a.366.366,0,0,0-.231-.452.287.287,0,0,0-.406.138c-.065.185.018.277.148.4l.341.332a.507.507,0,0,1,.092.554.589.589,0,0,1-.831.341.666.666,0,0,1-.424-.812Z" transform="translate(-1.713 -3.138)"/><path class="b" d="M25.486,43.243h0l.277.055c.341.065.535-.092.646-.674.12-.618-.018-.812-.341-.877l-.268-.055Zm-.12-1.873.674.138c.572.111.784.406.637,1.154-.129.628-.314,1.015-1.043.867l-.674-.138.046-.231.212.046.314-1.55-.212-.046Z" transform="translate(-1.926 -3.192)"/><path class="e" d="M25.486,43.243h0l.277.055c.341.065.535-.092.646-.674.12-.618-.018-.812-.341-.877l-.268-.055Zm-.12-1.873.674.138c.572.111.784.406.637,1.154-.129.628-.314,1.015-1.043.867l-.674-.138.046-.231.212.046.314-1.55-.212-.046Z" transform="translate(-1.926 -3.192)"/><path class="b" d="M28.374,41.82l1.274.046v.24l-1.024-.037-.018.618.84.028-.009.231-.84-.028-.018.738,1.015.028-.009.24L28.3,43.878Z" transform="translate(-2.184 -3.227)"/><path class="e" d="M28.374,41.82l1.274.046v.24l-1.024-.037-.018.618.84.028-.009.231-.84-.028-.018.738,1.015.028-.009.24L28.3,43.878Z" transform="translate(-2.184 -3.227)"/><path class="b" d="M34.391,41.25l-.351.268-.12-.175.6-.452.581,1.975.452-.129.055.185-1.2.36-.065-.194.544-.157Z" transform="translate(-2.618 -3.155)"/><path class="f" d="M34.391,41.25l-.351.268-.12-.175.6-.452.581,1.975.452-.129.055.185-1.2.36-.065-.194.544-.157Z" transform="translate(-2.618 -3.155)"/><path class="b" d="M36.733,40.289h0c-.249.111-.258.378-.138.628.1.231.277.434.554.3a.641.641,0,0,0,.277-.36C37.139,40.234,36.926,40.2,36.733,40.289ZM37.065,42a.5.5,0,0,0,.4,0c.369-.166.175-.646.055-.914a.668.668,0,0,1-.323.351c-.378.175-.664-.074-.821-.406a.652.652,0,0,1,.277-.932c.526-.24.84.378,1.015.757.185.415.434,1.08-.12,1.338a.741.741,0,0,1-.526.028Z" transform="translate(-2.8 -3.09)"/><path class="f" d="M36.733,40.289h0c-.249.111-.258.378-.138.628.1.231.277.434.554.3a.641.641,0,0,0,.277-.36C37.139,40.234,36.926,40.2,36.733,40.289ZM37.065,42a.5.5,0,0,0,.4,0c.369-.166.175-.646.055-.914a.668.668,0,0,1-.323.351c-.378.175-.664-.074-.821-.406a.652.652,0,0,1,.277-.932c.526-.24.84.378,1.015.757.185.415.434,1.08-.12,1.338a.741.741,0,0,1-.526.028Z" transform="translate(-2.8 -3.09)"/><path class="b" d="M39.156,40.707,38.51,39.1l.221-.074.544,1.375.508-.332-.609-.951.185-.12.609.951.148-.092.111.166-.148.092.3.471-.194.12-.3-.461Z" transform="translate(-2.972 -3.009)"/><path class="f" d="M39.156,40.707,38.51,39.1l.221-.074.544,1.375.508-.332-.609-.951.185-.12.609.951.148-.092.111.166-.148.092.3.471-.194.12-.3-.461Z" transform="translate(-2.972 -3.009)"/><path class="b" d="M41.347,39.176l-.867-1.5.212-.1.729,1.283.452-.4-.738-.849.175-.148.738.858.129-.12.129.148-.129.12.36.425-.166.138L42,38.614Z" transform="translate(-3.124 -2.891)"/><path class="f" d="M41.347,39.176l-.867-1.5.212-.1.729,1.283.452-.4-.738-.849.175-.148.738.858.129-.12.129.148-.129.12.36.425-.166.138L42,38.614Z" transform="translate(-3.124 -2.891)"/></g></svg>