<svg xmlns="http://www.w3.org/2000/svg" width="84.938" height="70.547" viewBox="0 0 84.938 70.547"><defs><style>.a{fill:#00a4b2;}.b{fill:#fff;}.c,.e,.f{fill:none;stroke:#fff;stroke-miterlimit:22.926;}.c{stroke-width:0.064px;}.d{fill:#ae172a;}.e{stroke-width:0.063px;}.f{stroke-width:0.077px;}</style></defs><path class="a" d="M75.543,35.274A35.266,35.266,0,1,1,40.284,0,35.272,35.272,0,0,1,75.543,35.274" transform="translate(2.185 0)"/><path class="b" d="M14.638,16.2a.684.684,0,0,0,.919-.23.521.521,0,0,0-.144-.776c-.33-.2-.574.029-.847.215-.4.287-.732.589-1.221.273a.832.832,0,0,1-.215-1.206.908.908,0,0,1,1.163-.388l-.1.388a.574.574,0,0,0-.747.215.444.444,0,0,0,.086.646c.244.158.417.043.632-.1l.6-.4a.787.787,0,0,1,.847.014.892.892,0,0,1,.273,1.321,1.01,1.01,0,0,1-1.336.388Z" transform="translate(5.656 6.116)"/><path class="c" d="M14.638,16.2a.684.684,0,0,0,.919-.23.521.521,0,0,0-.144-.776c-.33-.2-.574.029-.847.215-.4.287-.732.589-1.221.273a.832.832,0,0,1-.215-1.206.908.908,0,0,1,1.163-.388l-.1.388a.574.574,0,0,0-.747.215.444.444,0,0,0,.086.646c.244.158.417.043.632-.1l.6-.4a.787.787,0,0,1,.847.014.892.892,0,0,1,.273,1.321,1.01,1.01,0,0,1-1.336.388Z" transform="translate(5.656 6.116)"/><path class="b" d="M15.147,12.488h0l.819,1.264.56-.675Zm1.02,1.565.517.819-.359.215-1.695-2.7L14.96,12l2.959,1.206-.144.388-.89-.373Z" transform="translate(6.382 5.235)"/><path class="c" d="M15.147,12.488h0l.819,1.264.56-.675Zm1.02,1.565.517.819-.359.215-1.695-2.7L14.96,12l2.959,1.206-.144.388-.89-.373Z" transform="translate(6.382 5.235)"/><path class="b" d="M18.839,12.207h0c.259-.23.46-.517.172-.833a.531.531,0,0,0-.8-.029l-.417.373.7.79Zm-.948-1.034h0a.473.473,0,0,0,.057-.718c-.244-.273-.5-.172-.718.014l-.316.287.646.718Zm.3,2.1L17.948,13l.244-.215L16.6,11l-.244.215-.244-.273.732-.646c.589-.531,1.034-.531,1.393-.129a.68.68,0,0,1,.158.7.748.748,0,0,1,.89.2.867.867,0,0,1-.172,1.336Z" transform="translate(7.028 4.31)"/><path class="c" d="M18.839,12.207h0c.259-.23.46-.517.172-.833a.531.531,0,0,0-.8-.029l-.417.373.7.79Zm-.948-1.034h0a.473.473,0,0,0,.057-.718c-.244-.273-.5-.172-.718.014l-.316.287.646.718Zm.3,2.1L17.948,13l.244-.215L16.6,11l-.244.215-.244-.273.732-.646c.589-.531,1.034-.531,1.393-.129a.68.68,0,0,1,.158.7.748.748,0,0,1,.89.2.867.867,0,0,1-.172,1.336Z" transform="translate(7.028 4.31)"/><path class="b" d="M19.3,10.173h0c.244.373.747.977,1.25.646s.144-1.02-.115-1.407S19.7,8.435,19.2,8.765,19.056,9.785,19.3,10.173Zm1.494-.991c.144.215.876,1.35-.029,1.939-.417.273-1.12.316-1.81-.718s-.4-1.666.029-1.953S20.1,8.148,20.794,9.182Z" transform="translate(8.088 3.615)"/><path class="c" d="M19.3,10.173h0c.244.373.747.977,1.25.646s.144-1.02-.115-1.407S19.7,8.435,19.2,8.765,19.056,9.785,19.3,10.173Zm1.494-.991c.144.215.876,1.35-.029,1.939-.417.273-1.12.316-1.81-.718s-.4-1.666.029-1.953S20.1,8.148,20.794,9.182Z" transform="translate(8.088 3.615)"/><path class="b" d="M22.171,8.394h0a.567.567,0,0,0,.33-.79.461.461,0,0,0-.689-.215l-.589.273.46.962ZM20.72,7.5l.948-.445a.816.816,0,0,1,1.206.359.95.95,0,0,1-.2,1.063l1.221.8-.23.33-1.321-.934-.5.259.574,1.206-.359.172Z" transform="translate(9.038 3.023)"/><path class="c" d="M22.171,8.394h0a.567.567,0,0,0,.33-.79.461.461,0,0,0-.689-.215l-.589.273.46.962ZM20.72,7.5l.948-.445a.816.816,0,0,1,1.206.359.95.95,0,0,1-.2,1.063l1.221.8-.23.33-1.321-.934-.5.259.574,1.206-.359.172Z" transform="translate(9.038 3.023)"/><path class="b" d="M28.342,7.774a1.168,1.168,0,0,1-.919.8c-.89.144-1.307-.646-1.422-1.407-.187-1.221.4-1.695.89-1.767a1.067,1.067,0,0,1,1.077.5l-.33.244a.715.715,0,0,0-.675-.373c-.618.1-.618.862-.546,1.321s.3,1.206.919,1.106c.359-.057.5-.3.646-.6Z" transform="translate(11.327 2.351)"/><path class="c" d="M28.342,7.774a1.168,1.168,0,0,1-.919.8c-.89.144-1.307-.646-1.422-1.407-.187-1.221.4-1.695.89-1.767a1.067,1.067,0,0,1,1.077.5l-.33.244a.715.715,0,0,0-.675-.373c-.618.1-.618.862-.546,1.321s.3,1.206.919,1.106c.359-.057.5-.3.646-.6Z" transform="translate(11.327 2.351)"/><path class="b" d="M29.031,6.789h0c0,.46.1,1.221.7,1.221s.675-.79.661-1.235-.1-1.235-.7-1.221S29.017,6.329,29.031,6.789Zm1.781-.029c0,.244.014,1.609-1.077,1.623-.5.014-1.106-.345-1.135-1.58s.574-1.623,1.092-1.623C30.18,5.166,30.8,5.51,30.812,6.76Z" transform="translate(12.476 2.259)"/><path class="c" d="M29.031,6.789h0c0,.46.1,1.221.7,1.221s.675-.79.661-1.235-.1-1.235-.7-1.221S29.017,6.329,29.031,6.789Zm1.781-.029c0,.244.014,1.609-1.077,1.623-.5.014-1.106-.345-1.135-1.58s.574-1.623,1.092-1.623C30.18,5.166,30.8,5.51,30.812,6.76Z" transform="translate(12.476 2.259)"/><path class="b" d="M31.843,5.912h0L31.427,8.4l-.417-.057.531-3.059.517.072.388,1.407L33.179,5.5l.517.072-.287,3.088L32.992,8.6l.244-2.5h0l-.919,1.537Z" transform="translate(13.527 2.303)"/><path class="c" d="M31.843,5.912h0L31.427,8.4l-.417-.057.531-3.059.517.072.388,1.407L33.179,5.5l.517.072-.287,3.088L32.992,8.6l.244-2.5h0l-.919,1.537Z" transform="translate(13.527 2.303)"/><path class="b" d="M36.57,8.6a.683.683,0,0,0,.345.876.524.524,0,0,0,.747-.244c.158-.345-.1-.56-.33-.8-.33-.359-.675-.646-.445-1.178A.832.832,0,0,1,38.05,6.88.923.923,0,0,1,38.6,7.986l-.388-.057a.559.559,0,0,0-.316-.7.45.45,0,0,0-.632.172c-.115.273.014.417.187.618l.488.531a.8.8,0,0,1,.1.833.894.894,0,0,1-1.278.445,1.015,1.015,0,0,1-.574-1.264Z" transform="translate(15.766 2.958)"/><path class="c" d="M36.57,8.6a.683.683,0,0,0,.345.876.524.524,0,0,0,.747-.244c.158-.345-.1-.56-.33-.8-.33-.359-.675-.646-.445-1.178A.832.832,0,0,1,38.05,6.88.923.923,0,0,1,38.6,7.986l-.388-.057a.559.559,0,0,0-.316-.7.45.45,0,0,0-.632.172c-.115.273.014.417.187.618l.488.531a.8.8,0,0,1,.1.833.894.894,0,0,1-1.278.445,1.015,1.015,0,0,1-.574-1.264Z" transform="translate(15.766 2.958)"/><path class="b" d="M40.467,8.641h0l-1.135.977.747.474ZM39.045,9.862l-.747.618-.259-.33L40.5,8.11l.431.273-.8,3.088-.4-.086.259-.934Z" transform="translate(16.594 3.538)"/><path class="c" d="M40.467,8.641h0l-1.135.977.747.474ZM39.045,9.862l-.747.618-.259-.33L40.5,8.11l.431.273-.8,3.088-.4-.086.259-.934Z" transform="translate(16.594 3.538)"/><path class="b" d="M43.811,10.011h0l-1.163-.359.057-.3,1.192.23Zm-1.364-.316L41.068,11.3c-.287.345-.33.589-.014.862.373.33.6.23.89-.115l1.379-1.609.3.259-1.494,1.752a.863.863,0,0,1-1.293.014.863.863,0,0,1-.172-1.293l1.479-1.738Z" transform="translate(17.645 4.079)"/><path class="c" d="M43.811,10.011h0l-1.163-.359.057-.3,1.192.23Zm-1.364-.316L41.068,11.3c-.287.345-.33.589-.014.862.373.33.6.23.89-.115l1.379-1.609.3.259-1.494,1.752a.863.863,0,0,1-1.293.014.863.863,0,0,1-.172-1.293l1.479-1.738Z" transform="translate(17.645 4.079)"/><path class="b" d="M42.732,13.6h0l.273.316c.345.388.718.373,1.393-.215.718-.632.718-.991.388-1.364l-.273-.316Zm1.594-2.355.689.776c.589.661.574,1.206-.287,1.968-.732.646-1.307.919-2.039.086L42,13.294l.273-.23.215.244,1.8-1.58-.215-.244Z" transform="translate(18.321 4.903)"/><path class="c" d="M42.732,13.6h0l.273.316c.345.388.718.373,1.393-.215.718-.632.718-.991.388-1.364l-.273-.316Zm1.594-2.355.689.776c.589.661.574,1.206-.287,1.968-.732.646-1.307.919-2.039.086L42,13.294l.273-.23.215.244,1.8-1.58-.215-.244Z" transform="translate(18.321 4.903)"/><path class="b" d="M46.26,13.52l1.048,1.623-.287.2-.847-1.293-.776.5.689,1.063-.3.2L45.1,14.755l-.919.6.833,1.293-.3.187L43.66,15.215Z" transform="translate(19.045 5.898)"/><path class="c" d="M46.26,13.52l1.048,1.623-.287.2-.847-1.293-.776.5.689,1.063-.3.2L45.1,14.755l-.919.6.833,1.293-.3.187L43.66,15.215Z" transform="translate(19.045 5.898)"/><path class="b" d="M30.281,18.75c0,.23,0,1.092.632,1.092s.574-.847.56-1.063c-.043-.761-.488-5.041-.488-5.041a.543.543,0,0,0,.287-.144.849.849,0,0,0,.158-.5,11.63,11.63,0,0,0,.1-2.039.9.9,0,0,0-.2-.56,1.2,1.2,0,0,1-.23-.7.9.9,0,0,0-.014-.158,1.4,1.4,0,0,0-.646.531,3,3,0,0,0-.287,1.58c.014.3.086,1.278.115,1.451a.662.662,0,0,0,.187.417.446.446,0,0,0,.259.129c.014.014-.431,4.438-.431,5.012" transform="translate(13.151 4.201)"/><path class="b" d="M28.78,13.713a.884.884,0,0,0,.9-.9,18.145,18.145,0,0,0-.259-3.088h-.158L29.282,12c0,.072-.014.373-.23.388s-.215-.273-.215-.345l-.072-2.312h-.158l-.072,2.312c0,.072-.014.359-.23.359s-.23-.316-.23-.345l.014-2.312h-.144a21.965,21.965,0,0,0-.316,3.03.907.907,0,0,0,.919.977c-.129,1.005-.474,3.863-.474,5.156,0,.345.086.919.618.919.574,0,.589-.632.589-.962-.086-1.321-.388-4.151-.5-5.156" transform="translate(12.052 4.24)"/><path class="b" d="M26.169,37.2c.244-.689,1.767.316,2.528.057.474-.158.574-1.092,1.106-1.695-.833-.46-.761-.962-.6-1.092a2.064,2.064,0,0,1,1.81-.014,6.4,6.4,0,0,1,.732-.474c.819-.445,3.059-.546,3.447.316.345.761-.776,2.556-1.551,3.145-.043.661-.388,1.652-.934,1.623-.46-.029-.632-.646-.675-.962-1.321.46-2.614-.3-2.944-.043-.675.517-.5,2.126-1.293,2.068s-.5-1.623-.5-1.623-1.364-.618-1.12-1.307" transform="translate(11.403 14.677)"/><path class="b" d="M56.745,48.709c-.79.474-1.609.948-2.456,1.379a28.07,28.07,0,0,1-7.382,2.729,35.2,35.2,0,0,1-7.928.79,42.6,42.6,0,0,1-5.989-.618c-.431-.1,7.626,1.465,14.937-.632-.33.057-1.451.23-2.011.259.417-.129,1.379-.359,2.1-.574s1.178-.373.632-.244a37.95,37.95,0,0,1-8.014,1.293c-.474,0-1.25.043-2.456-.043-.517-.043-1.048-.086-1.565-.144.043.014.086.014.129.029l-.316-.043a33.424,33.424,0,0,1-13.587-4.84A30.958,30.958,0,0,1,11.849,36.371,45.356,45.356,0,0,1,9.422,30.21h-.33c.187.589.718,2.355.934,2.93a30.319,30.319,0,0,0,4.74,8.287A32.5,32.5,0,0,0,30.735,52a31.725,31.725,0,0,1-5.917-2.212,32.106,32.106,0,0,1-7.368-5.07A30.171,30.171,0,0,1,12.883,39.2a31.2,31.2,0,0,1-3.1-6.334c-.172-.488-.661-2.154-.819-2.657H7.77A29.487,29.487,0,0,0,11.59,39a32.877,32.877,0,0,0,7.655,8.186,35.4,35.4,0,0,0,9.824,5.242,31.651,31.651,0,0,0,10.757,1.752,32.959,32.959,0,0,0,7.2-.948A31.38,31.38,0,0,0,54.1,50.547a16.072,16.072,0,0,0,2.327-1.465c.144-.115.259-.2.345-.273a.945.945,0,0,0,.172-.172c.1-.086.043-.072-.2.072" transform="translate(3.389 13.178)"/><path class="b" d="M44.241,7.409a46.677,46.677,0,0,1,5.127,4.409A30.026,30.026,0,0,1,53.5,17.3a30.47,30.47,0,0,1,2.944,6.262c.287.819.517,1.537.732,2.384h.359a21.016,21.016,0,0,0-.718-2.3,33.27,33.27,0,0,0-7.641-12.423A30.116,30.116,0,0,0,37.4,3.718a41.547,41.547,0,0,1,6.836,3.691" transform="translate(16.253 1.596)"/><path class="b" d="M17.055,9.984a34.221,34.221,0,0,1,3.49-2.126c1.307-.689,2.714-1.25,3.878-1.723A37.174,37.174,0,0,1,31.891,4.2a33.441,33.441,0,0,1,3.576-.259,29.548,29.548,0,0,1,9.8,1.364,29.23,29.23,0,0,1,11.389,6.65A26.056,26.056,0,0,1,61.563,18.1a32.617,32.617,0,0,1,3.059,6.894c.144.46.287.919.417,1.393H66.4a33.16,33.16,0,0,0-1.192-3.677,34.475,34.475,0,0,0-2.6-5.213,40.693,40.693,0,0,0-3.346-4.538,31.8,31.8,0,0,0-8.043-6.305,28.955,28.955,0,0,0-5.285-2.312,34.625,34.625,0,0,0-4.9-1.25,28.845,28.845,0,0,0-4.05-.445c-1.02-.029-1.767-.014-2.47.029s-1.407.115-2.3.23-2,.3-3.5.661A25.594,25.594,0,0,0,24.58,4.971a34.606,34.606,0,0,0-4.8,2.528,35.654,35.654,0,0,1,5.5-2.614,25.774,25.774,0,0,1,4.237-1.192A30.419,30.419,0,0,1,35.553,3a32.531,32.531,0,0,1,5.917.46,29.153,29.153,0,0,1,7.138,2.2c.373.187.287.144-.445-.158A33.254,33.254,0,0,0,43.8,4.081a29.473,29.473,0,0,0-4.065-.732A30.808,30.808,0,0,0,34.217,3.2,32.037,32.037,0,0,0,27.323,4.4a30.62,30.62,0,0,0-7.8,3.519c.259-.144,1.178-.7,2.47-1.321a30.994,30.994,0,0,1,4.682-1.81A30.474,30.474,0,0,1,31.46,3.779a21.225,21.225,0,0,1,2.384-.187c.1.029-1.178.072-3.088.388a31.422,31.422,0,0,0-6.879,1.939A30.948,30.948,0,0,0,17.658,9.38a24.726,24.726,0,0,0-2.355,1.91c.158-.129.819-.646,1.752-1.307" transform="translate(6.672 1.147)"/><path class="d" d="M84.924,35a.371.371,0,0,1-.373.373H.373A.371.371,0,0,1,0,35V19.543a.371.371,0,0,1,.373-.373H84.565a.371.371,0,0,1,.373.373V35Z" transform="translate(0 8.362)"/><path class="b" d="M4.772,31.42H3.02V21.28H7.774v1.58h-3v2.6H7.343v1.551H4.772Z" transform="translate(1.317 9.283)"/><path class="b" d="M11.5,25.991h0c.732,0,1.178-.2,1.178-1.58,0-1.35-.46-1.565-1.178-1.565h-.862v3.131H11.5Zm-.862,5.429H8.87V21.28h2.858c1.479,0,2.729.417,2.729,3.131,0,1.838-.56,2.585-1.278,2.959l1.494,4.05h-2l-1.163-3.849h-.876Z" transform="translate(3.869 9.283)"/><path class="b" d="M20.061,21.28v1.58H17.017v2.6h2.542v1.551H17.017v2.844h3.231V31.42h-5V21.28Z" transform="translate(6.652 9.283)"/><path class="b" d="M25.231,28.715c0-1.063-.431-1.307-1.58-1.623A2.692,2.692,0,0,1,21.267,24.1c0-2,.747-2.944,2.9-2.944,2.4,0,2.657,1.25,2.671,3.117l-1.709.215c0-1.135-.086-1.781-1.02-1.781-.7,0-1.077.373-1.077,1.336,0,1.048.316,1.25,1.407,1.494,1.537.33,2.513.876,2.528,3.059,0,2.255-1.02,3.059-3.059,3.059-2.355,0-2.815-1.048-2.829-3.145l1.695-.215c.014,1.25.172,1.81,1.178,1.81.876-.014,1.278-.388,1.278-1.393" transform="translate(9.196 9.23)"/><path class="b" d="M30.732,30.075c.948,0,1.206-.4,1.221-1.8l1.738.215c-.029,2.154-.618,3.1-2.93,3.1-2.14,0-3.131-1.235-3.131-5.213s.991-5.213,3.131-5.213c2.3,0,2.9.948,2.93,3.088l-1.738.23c-.014-1.393-.273-1.8-1.221-1.8-1.077,0-1.321,1.178-1.321,3.677,0,2.528.244,3.705,1.321,3.705" transform="translate(12.053 9.235)"/><path class="b" d="M36.3,28.143h1.623l-.8-5.357Zm2.14-6.923L40.21,31.446H38.429l-.287-1.853H36.074L35.8,31.446H34.02L35.787,21.22h2.657Z" transform="translate(14.84 9.257)"/><path class="b" d="M43.846,31.42H42.094V22.86H40.27V21.28h5.4v1.58H43.846Z" transform="translate(17.567 9.283)"/><path class="b" d="M49.776,31.42H48.024V22.86H46.2V21.28h5.4v1.58H49.776Z" transform="translate(20.153 9.283)"/><path class="b" d="M56.182,26.393h0c0-2.772-.215-3.677-1.293-3.677s-1.293.9-1.293,3.677.215,3.677,1.293,3.677,1.293-.9,1.293-3.677m1.767,0c0,3.648-.56,5.213-3.059,5.213s-3.059-1.565-3.059-5.213.56-5.213,3.059-5.213S57.948,22.745,57.948,26.393Z" transform="translate(22.609 9.239)"/><path class="b" d="M17.324,40.047h0l.33.273c.417.345.8.259,1.379-.445.632-.761.574-1.135.172-1.451l-.33-.273Zm1.235-2.657.819.689c.7.574.776,1.135.029,2.039-.632.776-1.178,1.149-2.068.417l-.819-.675.23-.287.259.215,1.565-1.9-.259-.215Z" transform="translate(7.206 16.31)"/><path class="e" d="M17.324,40.047h0l.33.273c.417.345.8.259,1.379-.445.632-.761.574-1.135.172-1.451l-.33-.273Zm1.235-2.657.819.689c.7.574.776,1.135.029,2.039-.632.776-1.178,1.149-2.068.417l-.819-.675.23-.287.259.215,1.565-1.9-.259-.215Z" transform="translate(7.206 16.31)"/><path class="b" d="M20.829,39.2l1.723,1.005-.187.33L21,39.731l-.488.833,1.135.646-.187.33-1.135-.661-.574.977,1.379.8-.187.316L19.22,41.972Z" transform="translate(8.384 17.1)"/><path class="e" d="M20.829,39.2l1.723,1.005-.187.33L21,39.731l-.488.833,1.135.646-.187.33-1.135-.661-.574.977,1.379.8-.187.316L19.22,41.972Z" transform="translate(8.384 17.1)"/><path class="b" d="M22.578,42.57a.7.7,0,0,0,.417.89.548.548,0,0,0,.761-.287c.144-.373-.129-.574-.388-.8-.373-.345-.732-.618-.517-1.178a.864.864,0,0,1,1.178-.46.954.954,0,0,1,.632,1.106l-.4-.029a.57.57,0,0,0-.359-.7.447.447,0,0,0-.632.215c-.1.287.029.431.23.618l.531.517a.789.789,0,0,1,.144.862.917.917,0,0,1-1.293.531,1.037,1.037,0,0,1-.661-1.264Z" transform="translate(9.679 17.737)"/><path class="e" d="M22.578,42.57a.7.7,0,0,0,.417.89.548.548,0,0,0,.761-.287c.144-.373-.129-.574-.388-.8-.373-.345-.732-.618-.517-1.178a.864.864,0,0,1,1.178-.46.954.954,0,0,1,.632,1.106l-.4-.029a.57.57,0,0,0-.359-.7.447.447,0,0,0-.632.215c-.1.287.029.431.23.618l.531.517a.789.789,0,0,1,.144.862.917.917,0,0,1-1.293.531,1.037,1.037,0,0,1-.661-1.264Z" transform="translate(9.679 17.737)"/><path class="b" d="M25.779,44.286h0l.431.086c.531.1.833-.144,1.005-1.048.187-.962-.029-1.264-.531-1.364l-.417-.086Zm-.187-2.916,1.048.215c.89.172,1.221.632.991,1.8-.2.977-.488,1.58-1.623,1.35l-1.048-.215.072-.359.33.072.488-2.413-.33-.072Z" transform="translate(10.888 18.046)"/><path class="e" d="M25.779,44.286h0l.431.086c.531.1.833-.144,1.005-1.048.187-.962-.029-1.264-.531-1.364l-.417-.086Zm-.187-2.916,1.048.215c.89.172,1.221.632.991,1.8-.2.977-.488,1.58-1.623,1.35l-1.048-.215.072-.359.33.072.488-2.413-.33-.072Z" transform="translate(10.888 18.046)"/><path class="b" d="M28.415,41.82l1.982.072v.373L28.8,42.208l-.029.962,1.307.043-.014.359-1.307-.043-.029,1.149,1.58.043-.014.373-2-.072Z" transform="translate(12.345 18.243)"/><path class="e" d="M28.415,41.82l1.982.072v.373L28.8,42.208l-.029.962,1.307.043-.014.359-1.307-.043-.029,1.149,1.58.043-.014.373-2-.072Z" transform="translate(12.345 18.243)"/><path class="b" d="M34.652,41.45l-.546.417-.187-.273.934-.7.9,3.074.7-.2.086.287-1.867.56-.1-.3.847-.244Z" transform="translate(14.797 17.837)"/><path class="f" d="M34.652,41.45l-.546.417-.187-.273.934-.7.9,3.074.7-.2.086.287-1.867.56-.1-.3.847-.244Z" transform="translate(14.797 17.837)"/><path class="b" d="M36.982,40.427h0c-.388.172-.4.589-.215.977.158.359.431.675.862.474a1,1,0,0,0,.431-.56C37.614,40.341,37.283,40.283,36.982,40.427Zm.517,2.657a.77.77,0,0,0,.618,0c.574-.259.273-1.005.086-1.422a1.039,1.039,0,0,1-.5.546c-.589.273-1.034-.115-1.278-.632a1.014,1.014,0,0,1,.431-1.451c.819-.373,1.307.589,1.58,1.178.287.646.675,1.68-.187,2.083a1.153,1.153,0,0,1-.819.043Z" transform="translate(15.828 17.467)"/><path class="f" d="M36.982,40.427h0c-.388.172-.4.589-.215.977.158.359.431.675.862.474a1,1,0,0,0,.431-.56C37.614,40.341,37.283,40.283,36.982,40.427Zm.517,2.657a.77.77,0,0,0,.618,0c.574-.259.273-1.005.086-1.422a1.039,1.039,0,0,1-.5.546c-.589.273-1.034-.115-1.278-.632a1.014,1.014,0,0,1,.431-1.451c.819-.373,1.307.589,1.58,1.178.287.646.675,1.68-.187,2.083a1.153,1.153,0,0,1-.819.043Z" transform="translate(15.828 17.467)"/><path class="b" d="M39.515,41.657l-1.005-2.5.345-.115.847,2.14.79-.517-.948-1.479L39.831,39l.948,1.479.23-.144.172.259-.23.144.474.732-.3.187-.46-.718Z" transform="translate(16.799 17.013)"/><path class="f" d="M39.515,41.657l-1.005-2.5.345-.115.847,2.14.79-.517-.948-1.479L39.831,39l.948,1.479.23-.144.172.259-.23.144.474.732-.3.187-.46-.718Z" transform="translate(16.799 17.013)"/><path class="b" d="M41.83,40.131,40.48,37.79l.33-.158,1.135,2,.7-.618L41.5,37.69l.273-.23L42.922,38.8l.2-.187.2.23-.2.187.56.661-.259.215-.574-.646Z" transform="translate(17.658 16.341)"/><path class="f" d="M41.83,40.131,40.48,37.79l.33-.158,1.135,2,.7-.618L41.5,37.69l.273-.23L42.922,38.8l.2-.187.2.23-.2.187.56.661-.259.215-.574-.646Z" transform="translate(17.658 16.341)"/></svg>