<svg xmlns="http://www.w3.org/2000/svg" width="37.838" height="37.839" viewBox="0 0 37.838 37.839"><defs><style>.a{fill:#2dc6d6;}</style></defs><g transform="translate(288.52 -112.329)"><path class="a" d="M-244.656,148.7a2.774,2.774,0,0,1-2.774-2.774,2.764,2.764,0,0,1,.922-2.061,7.872,7.872,0,0,0-3.28-.713,7.906,7.906,0,0,0-7.906,7.906,7.906,7.906,0,0,0,7.906,7.906,7.906,7.906,0,0,0,7.906-7.906,7.87,7.87,0,0,0-.713-3.28A2.765,2.765,0,0,1-244.656,148.7Z" transform="translate(-19.813 -19.814)"/><path class="a" d="M-250.682,132.494V130h-3.907a15,15,0,0,0-3.549-8.484l1.345-1.345-1.762-1.762-1.351,1.351a15,15,0,0,0-8.449-3.48v-3.953h-2.492v3.953a15,15,0,0,0-8.738,3.73l-1.331-1.332-1.762,1.762,1.369,1.369a15,15,0,0,0-3.3,8.191h-3.907v2.492h3.9a15,15,0,0,0,3.5,8.515l-1.555,1.555,1.762,1.762,1.551-1.551a15,15,0,0,0,8.518,3.539v3.854h2.492v-3.854a15,15,0,0,0,8.518-3.539l1.282,1.281,1.762-1.762-1.285-1.285a15,15,0,0,0,3.5-8.515Zm-9.169,6.742-.962-.963-1.762,1.762.969.969a12.52,12.52,0,0,1-7.994,2.873A12.521,12.521,0,0,1-277.595,141l.969-.969-1.762-1.762-.963.963a12.519,12.519,0,0,1-2.83-7.938,12.514,12.514,0,0,1,2.649-7.709l.874.873,1.762-1.762-.919-.919a12.522,12.522,0,0,1,8.213-3.064,12.518,12.518,0,0,1,7.922,2.817l-1.166,1.166,1.762,1.762,1.175-1.175a12.522,12.522,0,0,1,2.887,8.01A12.517,12.517,0,0,1-259.851,139.236Z" transform="translate(0 0)"/></g></svg>