<svg xmlns="http://www.w3.org/2000/svg" width="37.189" height="37.578" viewBox="0 0 37.189 37.578"><defs><style>.a{fill:#2dc6d6;}</style></defs><g transform="translate(433.752 -99.46)"><g transform="translate(-433.752 104.437)"><path class="a" d="M-405.953,123.7a13.629,13.629,0,0,1,2.216,7.462,13.73,13.73,0,0,1-13.715,13.714,13.73,13.73,0,0,1-13.715-13.714,13.73,13.73,0,0,1,13.715-13.715,13.631,13.631,0,0,1,7.443,2.2l1.818-1.893a16.2,16.2,0,0,0-9.261-2.9,16.319,16.319,0,0,0-16.3,16.3,16.319,16.319,0,0,0,16.3,16.3,16.319,16.319,0,0,0,16.3-16.3,16.2,16.2,0,0,0-2.907-9.274Z" transform="translate(433.752 -114.857)"/></g><g transform="translate(-428.542 109.647)"><path class="a" d="M-398.918,138.306a8.448,8.448,0,0,1,.879,3.76,8.514,8.514,0,0,1-8.5,8.5,8.515,8.515,0,0,1-8.5-8.5,8.514,8.514,0,0,1,8.5-8.5,8.455,8.455,0,0,1,3.728.862l1.857-1.933a11.019,11.019,0,0,0-5.585-1.515,11.1,11.1,0,0,0-11.091,11.091,11.1,11.1,0,0,0,11.091,11.091,11.1,11.1,0,0,0,11.091-11.091,11.021,11.021,0,0,0-1.529-5.61Z" transform="translate(417.634 -130.975)"/></g><g transform="translate(-423.84 114.349)"><path class="a" d="M-392.593,151.516c.013.13.02.261.02.394a4.13,4.13,0,0,1-4.125,4.126,4.13,4.13,0,0,1-4.126-4.126,4.131,4.131,0,0,1,4.126-4.126c.112,0,.223.008.334.017l1.822-1.9a6.35,6.35,0,0,0-2.156-.382,6.4,6.4,0,0,0-6.388,6.388A6.4,6.4,0,0,0-396.7,158.3a6.4,6.4,0,0,0,6.388-6.388,6.341,6.341,0,0,0-.4-2.2Z" transform="translate(403.087 -145.522)"/></g><g transform="translate(-418.268 99.46)"><path class="a" d="M-383.946,121.44l16.692-16.413a.281.281,0,0,1,.065-.046l2.892-1.491a.278.278,0,0,0-.028-.507l-2.3-.883a.278.278,0,0,1-.16-.16l-.882-2.3a.278.278,0,0,0-.508-.027l-1.588,3.113a.273.273,0,0,1-.047.066l-15.961,16.821a.278.278,0,0,0,0,.389l1.434,1.434A.279.279,0,0,0-383.946,121.44Z" transform="translate(385.85 -99.46)"/></g></g></svg>