<svg xmlns="http://www.w3.org/2000/svg" width="35.839" height="35.839" viewBox="0 0 35.839 35.839"><defs><style>.a{fill:#2dc6d6;}</style></defs><g transform="translate(566.81 -113.113)"><g transform="translate(-558.602 121.747)"><path class="a" d="M-527.219,157.455a1,1,0,0,1-.467-.116l-4.913-2.583-4.913,2.583a1,1,0,0,1-1.058-.076,1,1,0,0,1-.4-.983l.938-5.471-3.975-3.875a1,1,0,0,1-.254-1.031,1,1,0,0,1,.811-.684l5.493-.8,2.456-4.977a1.006,1.006,0,0,1,.9-.56,1,1,0,0,1,.9.56l2.457,4.977,5.493.8a1,1,0,0,1,.811.684,1,1,0,0,1-.254,1.031l-3.975,3.875.938,5.471a1,1,0,0,1-.4.983A1,1,0,0,1-527.219,157.455Zm-5.381-4.839a1,1,0,0,1,.468.115l3.578,1.881-.683-3.985a1,1,0,0,1,.289-.889l2.895-2.822-4-.581a1,1,0,0,1-.756-.55l-1.789-3.625-1.789,3.625a1,1,0,0,1-.756.55l-4,.581,2.895,2.822a1,1,0,0,1,.289.889l-.683,3.985,3.578-1.881A1,1,0,0,1-532.6,152.616Z" transform="translate(542.311 -138.884)"/></g><g transform="translate(-566.81 113.113)"><path class="a" d="M-548.891,148.952a17.939,17.939,0,0,1-17.919-17.919,17.94,17.94,0,0,1,17.919-17.92,17.94,17.94,0,0,1,17.919,17.92A17.939,17.939,0,0,1-548.891,148.952Zm0-32.824a14.921,14.921,0,0,0-14.9,14.9,14.921,14.921,0,0,0,14.9,14.9,14.921,14.921,0,0,0,14.9-14.9A14.921,14.921,0,0,0-548.891,116.128Z" transform="translate(566.81 -113.113)"/></g></g></svg>