                    <svg xmlns="http://www.w3.org/2000/svg" width="48" height="48" viewBox="0 0 48 48">
                        <circle id="Elipse_7" data-name="Elipse 7" cx="24" cy="24" r="24" fill="#2dc6d6"/>
                        <path id="Uni達o_4" data-name="Uni達o 4" d="M4.093,14.642.366,8.2a1,1,0,0,1,.866-1.5H2.973V1a1,1,0,0,1,1-1H5.945a1,1,0,0,1,1,1V6.7H8.686a1,1,0,0,1,.866,1.5L5.825,14.642a1,1,0,0,1-1.732,0Z" transform="translate(19.041 13.057)" fill="#fff"/>
                        <path id="Uni達o_5" data-name="Uni達o 5" d="M17.378,3.228H0V0H1.986V1.242H17.378V0h1.986V3.228Z" transform="translate(14.317 28.697)" fill="#fff"/>
                      </svg>