<svg xmlns="http://www.w3.org/2000/svg" width="234.706" height="210.671" viewBox="0 0 234.706 210.671" style=""><defs><style>.a{fill:none;stroke:#2dc6d6;stroke-width:5px;}</style></defs><path class="a" d="M225.787,110.36a8.259,8.259,0,0,0-5.771-1.1L218.163,19a8.27,8.27,0,0,0-8.268-8.1H185.861a8.27,8.27,0,0,0-8.268,8.1l-1.949,94.944a8.236,8.236,0,0,0-11.189-3.951l-4.375,2.182V64.945a8.27,8.27,0,0,0-8.269-8.269h-10a8.27,8.27,0,0,0-8.269,8.269v60.471l-10.413,5.194V117.392a8.269,8.269,0,0,0-11.96-7.4L69.831,130.611V117.394a8.269,8.269,0,0,0-11.961-7.4L4.578,136.576A8.271,8.271,0,0,0,0,143.976V208.3a8.27,8.27,0,0,0,8.269,8.269H221.436a8.27,8.27,0,0,0,8.269-8.269v-90.91A8.267,8.267,0,0,0,225.787,110.36ZM46.485,188.2a8.27,8.27,0,0,1-8.269,8.269H23.289a8.27,8.27,0,0,1-8.269-8.269V177.9a8.27,8.27,0,0,1,8.269-8.269H38.216a8.27,8.27,0,0,1,8.269,8.269Zm63.443,0a8.27,8.27,0,0,1-8.269,8.269H86.731a8.27,8.27,0,0,1-8.269-8.269V177.9a8.27,8.27,0,0,1,8.269-8.269h14.928a8.27,8.27,0,0,1,8.269,8.269Zm63.443,0a8.27,8.27,0,0,1-8.269,8.269H150.174A8.27,8.27,0,0,1,141.9,188.2V177.9a8.27,8.27,0,0,1,8.269-8.269H165.1a8.27,8.27,0,0,1,8.269,8.269Z" transform="translate(2.5 -8.399)"/></svg>