<svg xmlns="http://www.w3.org/2000/svg" width="29.608" height="38.655" viewBox="0 0 29.608 38.655">
                    <g id="União_1" data-name="União 1" fill="none">
                      <path d="M11.515,38.655V29.241a14.8,14.8,0,1,1,7.4-.212v9.625Z" stroke="none"/>
                      <path d="M 15.12789058685303 25.95937538146973 L 17.80731010437012 25.1860523223877 C 20.0106201171875 24.55013275146484 21.99629020690918 23.18843269348145 23.39852142333984 21.35178184509277 C 24.84393119812012 19.45859336853027 25.6079216003418 17.19440269470215 25.6079216003418 14.8039722442627 C 25.6079216003418 11.91802215576172 24.48414039611816 9.204872131347656 22.44359016418457 7.164332389831543 C 20.40303993225098 5.123782634735107 17.68988990783691 4.000002384185791 14.80393123626709 4.000002384185791 C 8.846620559692383 4.000002384185791 4.000000953674316 8.84663200378418 4.000000953674316 14.80395221710205 C 4.000000953674316 17.30384254455566 4.828450679779053 19.65005302429199 6.395780563354492 21.58893203735352 C 7.920830726623535 23.47551155090332 10.05308055877686 24.80777168273926 12.39973068237305 25.34029197692871 L 15.12789058685303 25.95937538146973 M 18.9165210723877 38.65463256835938 L 11.51453113555908 38.65463256835938 L 11.51453113555908 29.24111175537109 C 4.92193078994751 27.74508285522461 8.001708806659735e-07 21.84936332702637 8.001708806659735e-07 14.80395221710205 C 8.001708806659735e-07 6.62822151184082 6.628400325775146 2.469482524247724e-06 14.80393218994141 2.469482524247724e-06 C 14.80443096160889 2.469482524247724e-06 14.80345153808594 2.468872025929159e-06 14.80395126342773 2.469482524247724e-06 C 22.98018074035645 2.469482524247724e-06 29.6079216003418 6.627742290496826 29.6079216003418 14.8039722442627 C 29.60793113708496 21.55295181274414 25.09150123596191 27.24697303771973 18.91651153564453 29.02918243408203 L 18.9165210723877 38.65463256835938 Z" stroke="none" fill="#a8a8a8"/>
                    </g>
                  </svg>